<?xml version="1.0" encoding="utf-8"?>
<!-- Generator: Adobe Illustrator 22.1.0, SVG Export Plug-In . SVG Version: 6.00 Build 0)  -->
<svg version="1.1" id="Layer_1" xmlns="http://www.w3.org/2000/svg" xmlns:xlink="http://www.w3.org/1999/xlink" x="0px" y="0px"
	 viewBox="0 0 250 250" style="enable-background:new 0 0 250 250;" xml:space="preserve">
<style type="text/css">
	.st0{fill:#212121;}
	.st1{opacity:0.16;fill:#00A299;}
	.st2{fill:#00A299;}
	.st3{fill:#D8DAE8;}
</style>
<rect class="st0" width="250" height="250"/>
<g>
	<path class="st1" d="M169.5,67.1l-3.7,0.6l0.9,4.7l-8.4,1.4l-0.9-4.7L74,83.3l0.9,4.7l-8.4,1.4l-0.9-4.7l-3.5,0.6l12.8,64.6
		l3.5-0.6l-0.6-3.1l8.4-1.4l0.6,3.1l83.5-14.2l-0.6-3.1l8.4-1.4l0.6,3.1l3.7-0.6L169.5,67.1z M169.8,87.7l1.1,5.4l-8.4,1.4l-1.1-5.4
		L169.8,87.7z M167.7,77.3l1.1,5.4l-8.4,1.4l-1.1-5.4L167.7,77.3z M67.5,94.4l8.4-1.4l1.1,5.4l-8.4,1.4L67.5,94.4z M69.6,104.7
		l8.4-1.4l1.1,5.4l-8.4,1.4L69.6,104.7z M71.6,115.1l8.4-1.4l1.1,5.4l-8.4,1.4L71.6,115.1z M74.7,130.8l-1.1-5.4L82,124l1.1,5.4
		L74.7,130.8z M76.8,141.2l-1.1-5.4l8.4-1.4l1.1,5.4L76.8,141.2z M157.9,129.6L96.9,140c-3.3,0.6-6.6-1.6-7.2-4.8l-8.1-40.9
		c-0.6-3.2,1.6-6.3,4.9-6.9L147.5,77c3.3-0.6,6.6,1.6,7.2,4.8l8.1,40.9C163.5,125.9,161.3,129,157.9,129.6z M163.5,99.5l8.4-1.4
		l1.1,5.4l-8.4,1.4L163.5,99.5z M165.5,109.8l8.4-1.4l1.1,5.4l-8.4,1.4L165.5,109.8z M168.6,125.6l-1.1-5.4l8.4-1.4l1.1,5.4
		L168.6,125.6z"/>
	<g>
		<path class="st2" d="M85,111c0.1,0,0.3,0,0.4,0c0.1,0,0.3,0,0.4,0c0.4,0,0.7-0.1,1-0.3s0.4-0.6,0.4-1.2l0-11.8h2.4l0,11.6
			c0,0.8-0.1,1.4-0.3,1.9c-0.2,0.5-0.4,0.9-0.8,1.2c-0.3,0.3-0.7,0.5-1.1,0.6c-0.4,0.1-0.9,0.2-1.3,0.2c-0.2,0-0.4,0-0.6,0
			s-0.4,0-0.6,0V111z"/>
		<path class="st2" d="M96.4,108.8l1.7-11l3.4,0l0,15.5l-2.3,0l0-11.1l-1.7,11.1h-2.3l-1.8-10.9l0,10.9h-2.1l0-15.5h3.4L96.4,108.8z
			"/>
		<path class="st3" d="M106.9,104.6l3.4,0v4.9c0,1.3-0.3,2.2-0.9,2.9c-0.6,0.7-1.5,1-2.7,1s-2.1-0.3-2.7-1s-0.9-1.6-0.9-2.9l0-8
			c0-1.3,0.3-2.2,0.9-2.9s1.5-1,2.7-1s2.1,0.3,2.7,1c0.6,0.7,0.9,1.6,0.9,2.9v1.5l-2.3,0v-1.7c0-0.6-0.1-1-0.3-1.2
			c-0.2-0.2-0.5-0.3-0.9-0.3s-0.7,0.1-0.9,0.3s-0.3,0.6-0.3,1.2l0,8.4c0,0.6,0.1,1,0.3,1.2s0.5,0.3,0.9,0.3s0.7-0.1,0.9-0.3
			c0.2-0.2,0.3-0.6,0.3-1.2v-2.9h-1.1V104.6z"/>
		<path class="st3" d="M116.9,113.2c0-0.1-0.1-0.2-0.1-0.3c0-0.1-0.1-0.2-0.1-0.3c0-0.1,0-0.3,0-0.5c0-0.2,0-0.5,0-0.8v-2.4
			c0-0.7-0.1-1.2-0.4-1.5c-0.3-0.3-0.7-0.4-1.2-0.4h-0.8v6.3h-2.4l0-15.5h3.7c1.3,0,2.2,0.3,2.8,0.9c0.6,0.6,0.9,1.5,0.9,2.7v1.2
			c0,1.6-0.5,2.6-1.6,3.1c0.6,0.3,1,0.7,1.3,1.2c0.2,0.6,0.3,1.3,0.3,2.1v2.4c0,0.4,0,0.7,0,1c0,0.3,0.1,0.6,0.2,0.9H116.9z
			 M114.3,100l0,4.8h1c0.5,0,0.8-0.1,1.1-0.4c0.3-0.2,0.4-0.7,0.4-1.3v-1.5c0-0.6-0.1-1-0.3-1.2s-0.5-0.4-0.9-0.4H114.3z"/>
		<path class="st3" d="M128.6,113.2h-2.5l-0.4-2.8h-3l-0.4,2.8h-2.2l2.5-15.5h3.6L128.6,113.2z M123,108.3h2.3l-1.2-7.8L123,108.3z"
			/>
		<path class="st3" d="M133.3,97.8c1.2,0,2.1,0.3,2.7,1c0.6,0.6,0.9,1.6,0.9,2.9v2c0,1.3-0.3,2.2-0.9,2.9c-0.6,0.6-1.5,1-2.7,1h-1.1
			l0,5.8h-2.4l0-15.5H133.3z M132.2,100v5.2h1.1c0.4,0,0.7-0.1,0.9-0.3c0.2-0.2,0.3-0.6,0.3-1.1v-2.3c0-0.6-0.1-0.9-0.3-1.1
			c-0.2-0.2-0.5-0.3-0.9-0.3H132.2z"/>
		<path class="st3" d="M140.5,113.2l-2.4,0l0-15.5l2.4,0v6.6h2.8v-6.6h2.5l0,15.5h-2.5l0-6.6h-2.8L140.5,113.2z"/>
		<path class="st3" d="M147.5,97.8l2.4,0l0,15.5l-2.4,0L147.5,97.8z"/>
		<path class="st3" d="M159.8,97.8l-2.5,7.5l2.7,8l-2.6,0l-2-6.1l-2,6.1h-2.3l2.7-8l-2.5-7.5h2.5l1.8,5.7l1.9-5.7L159.8,97.8z"/>
	</g>
	<g>
		<path class="st3" d="M89.5,121.8v0.9h-3.8l0,6.6l-1,0l0-14.6l5.5,0v0.9l-4.6,0v6.2H89.5z"/>
		<path class="st3" d="M92.7,114.7l0,14.6h-1l0-14.6H92.7z"/>
		<path class="st3" d="M94.4,129.3l0-14.6h1l0,13.7h4.6v0.9H94.4z"/>
		<path class="st3" d="M106.3,129.3h-1l-3.1-12.9l0,12.9h-0.9l0-14.6h1.4l3.1,12.9l3-12.9l1.4,0l0,14.6h-0.9l0-13L106.3,129.3z"/>
		<path class="st2" d="M114.9,114.6c0.6,0,1,0.1,1.4,0.3s0.7,0.4,1,0.8c0.3,0.3,0.4,0.7,0.6,1.2c0.1,0.4,0.2,0.9,0.2,1.5v0.3h-0.9
			v-0.4c0-0.4,0-0.7-0.1-1.1c-0.1-0.3-0.2-0.6-0.4-0.9c-0.2-0.2-0.4-0.4-0.7-0.6c-0.3-0.1-0.6-0.2-1-0.2c-0.8,0-1.4,0.3-1.7,0.8
			c-0.3,0.5-0.5,1.1-0.5,1.9c0,0.6,0.1,1.1,0.4,1.5c0.3,0.4,0.6,0.8,1,1.1c0.4,0.3,0.8,0.7,1.3,1c0.5,0.3,0.9,0.7,1.3,1
			c0.4,0.4,0.7,0.8,1,1.3c0.3,0.5,0.4,1,0.4,1.7c0,0.5-0.1,1-0.2,1.5s-0.3,0.8-0.6,1.2s-0.6,0.6-1,0.8c-0.4,0.2-0.9,0.3-1.4,0.3
			s-1-0.1-1.4-0.3c-0.4-0.2-0.7-0.4-1-0.8s-0.4-0.7-0.6-1.2s-0.2-0.9-0.2-1.5v-0.8h0.9v0.8c0,0.8,0.2,1.4,0.5,1.9s0.9,0.8,1.7,0.8
			c0.8,0,1.4-0.3,1.7-0.8c0.3-0.5,0.5-1.1,0.5-1.9c0-0.6-0.1-1.1-0.4-1.5c-0.3-0.4-0.6-0.8-1-1.1c-0.4-0.3-0.8-0.7-1.3-1
			c-0.5-0.3-0.9-0.6-1.3-1c-0.4-0.4-0.7-0.8-1-1.3c-0.3-0.5-0.4-1.1-0.4-1.7c0-1.1,0.2-2,0.7-2.6S113.9,114.6,114.9,114.6z"/>
		<path class="st2" d="M122.1,129.3l0-13.7l-3,0v-0.9l6.9,0v0.9h-3l0,13.7H122.1z"/>
		<path class="st2" d="M128.1,125.8c0,0.4,0,0.8,0.1,1.1c0.1,0.3,0.2,0.6,0.4,0.9c0.2,0.3,0.4,0.4,0.7,0.6c0.3,0.1,0.6,0.2,1,0.2
			c0.4,0,0.7-0.1,1-0.2c0.3-0.1,0.5-0.3,0.7-0.6c0.2-0.3,0.3-0.5,0.4-0.9c0.1-0.3,0.1-0.7,0.1-1.1v-11.1h0.9v11c0,0.5-0.1,1-0.2,1.5
			c-0.1,0.4-0.3,0.8-0.5,1.2s-0.6,0.6-1,0.8s-0.9,0.3-1.4,0.3c-0.6,0-1-0.1-1.4-0.3c-0.4-0.2-0.7-0.4-1-0.8s-0.4-0.7-0.6-1.2
			s-0.2-0.9-0.2-1.5v-11h1V125.8z"/>
		<path class="st2" d="M138.2,114.7c0.6,0,1,0.1,1.4,0.3c0.4,0.2,0.7,0.4,1,0.7c0.3,0.3,0.5,0.7,0.6,1.1s0.2,0.9,0.2,1.5v7.3
			c0,0.5-0.1,1-0.2,1.5s-0.3,0.8-0.6,1.1s-0.6,0.6-1,0.7c-0.4,0.2-0.9,0.3-1.4,0.3H135l0-14.6H138.2z M138.2,128.4
			c0.8,0,1.4-0.3,1.8-0.8c0.4-0.5,0.5-1.2,0.5-2v-7.4c0-0.8-0.2-1.5-0.5-2s-0.9-0.8-1.8-0.7H136v12.8H138.2z"/>
		<path class="st2" d="M144,114.7l0,14.6l-1,0l0-14.6H144z"/>
		<path class="st2" d="M145.6,118.3c0-0.5,0.1-1,0.2-1.5c0.1-0.5,0.3-0.8,0.6-1.2s0.6-0.6,1-0.8c0.4-0.2,0.9-0.3,1.4-0.3
			c0.6,0,1,0.1,1.4,0.3c0.4,0.2,0.7,0.4,1,0.8c0.3,0.3,0.5,0.7,0.6,1.2c0.1,0.5,0.2,0.9,0.2,1.5v7.5c0,0.5-0.1,1-0.2,1.5
			c-0.1,0.5-0.3,0.8-0.6,1.2c-0.3,0.3-0.6,0.6-1,0.8c-0.4,0.2-0.9,0.3-1.4,0.3s-1-0.1-1.4-0.3c-0.4-0.2-0.7-0.4-1-0.8
			s-0.4-0.7-0.6-1.2c-0.1-0.5-0.2-0.9-0.2-1.5V118.3z M146.6,125.8c0,0.8,0.2,1.4,0.5,2c0.3,0.5,0.9,0.8,1.7,0.8s1.4-0.3,1.7-0.8
			c0.4-0.5,0.5-1.2,0.5-2v-7.6c0-0.8-0.2-1.4-0.5-2c-0.4-0.5-0.9-0.8-1.7-0.8c-0.8,0-1.4,0.3-1.7,0.8c-0.3,0.5-0.5,1.2-0.5,2V125.8z
			"/>
		<path class="st2" d="M156.7,114.6c0.6,0,1,0.1,1.4,0.3c0.4,0.2,0.7,0.4,1,0.8c0.3,0.3,0.4,0.7,0.6,1.2c0.1,0.4,0.2,0.9,0.2,1.5
			v0.3h-0.9v-0.4c0-0.4,0-0.7-0.1-1.1c-0.1-0.3-0.2-0.6-0.4-0.9c-0.2-0.2-0.4-0.4-0.7-0.6c-0.3-0.1-0.6-0.2-1-0.2
			c-0.8,0-1.4,0.3-1.7,0.8c-0.3,0.5-0.5,1.1-0.5,1.9c0,0.6,0.1,1.1,0.4,1.5s0.6,0.8,1,1.1c0.4,0.3,0.8,0.7,1.3,1s0.9,0.7,1.3,1
			c0.4,0.4,0.7,0.8,1,1.3s0.4,1,0.4,1.7c0,0.5-0.1,1-0.2,1.5c-0.1,0.4-0.3,0.8-0.6,1.2c-0.3,0.3-0.6,0.6-1,0.8
			c-0.4,0.2-0.9,0.3-1.4,0.3c-0.6,0-1-0.1-1.4-0.3c-0.4-0.2-0.7-0.4-1-0.8c-0.3-0.3-0.4-0.7-0.6-1.2c-0.1-0.4-0.2-0.9-0.2-1.5v-0.8
			h0.9v0.8c0,0.8,0.2,1.4,0.5,1.9s0.9,0.8,1.7,0.8s1.4-0.3,1.7-0.8c0.3-0.5,0.5-1.1,0.5-1.9c0-0.6-0.1-1.1-0.4-1.5s-0.6-0.8-1-1.1
			c-0.4-0.3-0.8-0.7-1.3-1c-0.5-0.3-0.9-0.6-1.3-1c-0.4-0.4-0.7-0.8-1-1.3s-0.4-1.1-0.4-1.7c0-1.1,0.2-2,0.7-2.6
			C154.8,115,155.6,114.6,156.7,114.6z"/>
	</g>
	<polygon class="st3" points="173.7,97.2 162.8,97.2 162.8,130.7 173.7,130.7 187.9,143.7 187.9,84.2 	"/>
	<g>
		<g>
			<path class="st3" d="M138.4,48c-12.5,0-22.7,10.2-22.7,22.7c0,12.5,10.2,22.7,22.7,22.7c12.5,0,22.7-10.2,22.7-22.7
				C161.1,58.2,150.9,48,138.4,48z M148.2,59c2.5-1.5,5.8-0.6,7.2,1.9c1.5,2.5,0.6,5.8-1.9,7.2c-2.5,1.5-5.8,0.6-7.2-1.9
				C144.8,63.7,145.6,60.4,148.2,59z M138.4,51.1c2.9,0,5.3,2.4,5.3,5.3c0,2.9-2.4,5.3-5.3,5.3c-2.9,0-5.3-2.4-5.3-5.3
				C133.1,53.5,135.5,51.1,138.4,51.1z M139.7,68.4c-0.7-0.4-1-1.3-0.6-2.1c0.4-0.7,1.3-1,2.1-0.6c0.7,0.4,1,1.3,0.6,2.1
				C141.3,68.6,140.4,68.9,139.7,68.4z M141.8,73.5c0.4,0.7,0.2,1.7-0.5,2.1c-0.7,0.4-1.7,0.2-2.1-0.5c-0.4-0.7-0.2-1.7,0.5-2.1
				C140.4,72.5,141.4,72.8,141.8,73.5z M137.1,73c0.7,0.4,1,1.3,0.6,2.1c-0.4,0.7-1.3,1-2.1,0.6c-0.7-0.4-1-1.3-0.6-2.1
				C135.4,72.8,136.4,72.6,137.1,73z M135,67.9c-0.4-0.7-0.2-1.7,0.5-2.1c0.7-0.4,1.7-0.2,2.1,0.5c0.4,0.7,0.2,1.7-0.5,2.1
				C136.3,68.9,135.4,68.7,135,67.9z M128.6,82.5c-2.5,1.5-5.8,0.6-7.2-1.9c-1.5-2.5-0.6-5.8,1.9-7.2c2.5-1.5,5.8-0.6,7.2,1.9
				C132,77.8,131.1,81,128.6,82.5z M130.5,66.2c-1.5,2.5-4.7,3.4-7.2,1.9c-2.5-1.5-3.4-4.7-1.9-7.2c1.5-2.5,4.7-3.4,7.2-1.9
				C131.1,60.4,132,63.7,130.5,66.2z M134.2,69.2c0.8,0,1.5,0.7,1.5,1.5c0,0.8-0.7,1.5-1.5,1.5c-0.8,0-1.5-0.7-1.5-1.5
				C132.7,69.9,133.4,69.2,134.2,69.2z M138.4,90.3c-2.9,0-5.3-2.4-5.3-5.3c0-2.9,2.4-5.3,5.3-5.3c2.9,0,5.3,2.4,5.3,5.3
				C143.7,88,141.3,90.3,138.4,90.3z M142.6,72.2c-0.8,0-1.5-0.7-1.5-1.5c0-0.8,0.7-1.5,1.5-1.5c0.8,0,1.5,0.7,1.5,1.5
				C144.1,71.5,143.4,72.2,142.6,72.2z M155.4,80.5c-1.5,2.5-4.7,3.4-7.2,1.9c-2.5-1.5-3.4-4.7-1.9-7.2c1.5-2.5,4.7-3.4,7.2-1.9
				C156,74.8,156.8,78,155.4,80.5z"/>
		</g>
	</g>
	<g>
		<path class="st3" d="M101.3,61.1c-9.2,0-16.6,7.4-16.6,16.6c0,9.2,7.4,16.6,16.6,16.6c9.2,0,16.6-7.4,16.6-16.6
			C117.9,68.6,110.5,61.1,101.3,61.1z M108.5,69.2c1.8-1.1,4.2-0.4,5.3,1.4c1.1,1.8,0.4,4.2-1.4,5.3c-1.8,1.1-4.2,0.4-5.3-1.4
			C106,72.6,106.6,70.2,108.5,69.2z M101.3,63.4c2.1,0,3.9,1.7,3.9,3.9c0,2.1-1.7,3.9-3.9,3.9c-2.1,0-3.9-1.7-3.9-3.9
			C97.5,65.1,99.2,63.4,101.3,63.4z M102.3,76.1c-0.5-0.3-0.7-1-0.4-1.5c0.3-0.5,1-0.7,1.5-0.4c0.5,0.3,0.7,1,0.4,1.5
			C103.5,76.2,102.8,76.4,102.3,76.1z M103.8,79.8c0.3,0.5,0.1,1.2-0.4,1.5c-0.5,0.3-1.2,0.1-1.5-0.4c-0.3-0.5-0.1-1.2,0.4-1.5
			C102.8,79.1,103.5,79.2,103.8,79.8z M100.4,79.4c0.5,0.3,0.7,1,0.4,1.5c-0.3,0.5-1,0.7-1.5,0.4c-0.5-0.3-0.7-1-0.4-1.5
			C99.2,79.3,99.9,79.1,100.4,79.4z M98.8,75.7c-0.3-0.5-0.1-1.2,0.4-1.5c0.5-0.3,1.2-0.1,1.5,0.4c0.3,0.5,0.1,1.2-0.4,1.5
			C99.8,76.4,99.1,76.2,98.8,75.7z M94.2,86.3c-1.8,1.1-4.2,0.4-5.3-1.4c-1.1-1.8-0.4-4.2,1.4-5.3c1.8-1.1,4.2-0.4,5.3,1.4
			C96.7,82.9,96,85.3,94.2,86.3z M95.6,74.4c-1.1,1.8-3.4,2.5-5.3,1.4c-1.8-1.1-2.5-3.4-1.4-5.3c1.1-1.8,3.4-2.5,5.3-1.4
			C96,70.2,96.7,72.6,95.6,74.4z M98.3,76.7c0.6,0,1.1,0.5,1.1,1.1c0,0.6-0.5,1.1-1.1,1.1c-0.6,0-1.1-0.5-1.1-1.1
			C97.2,77.2,97.7,76.7,98.3,76.7z M101.3,92.1c-2.1,0-3.9-1.7-3.9-3.9c0-2.1,1.7-3.9,3.9-3.9c2.1,0,3.9,1.7,3.9,3.9
			C105.2,90.4,103.5,92.1,101.3,92.1z M104.4,78.8c-0.6,0-1.1-0.5-1.1-1.1c0-0.6,0.5-1.1,1.1-1.1c0.6,0,1.1,0.5,1.1,1.1
			C105.5,78.3,105,78.8,104.4,78.8z M113.8,84.9c-1.1,1.8-3.4,2.5-5.3,1.4c-1.8-1.1-2.5-3.4-1.4-5.3c1.1-1.8,3.4-2.5,5.3-1.4
			C114.2,80.7,114.8,83.1,113.8,84.9z"/>
	</g>
</g>
<g>
	<g>
		<polygon class="st2" points="97.2,209.7 107.3,215.5 97.2,221.4 		"/>
	</g>
	<g>
		<path class="st2" d="M56.7,212.6l-7.7,4.4l7.7,4.4v2.1l-10.3-5.9v-1l10.3-6V212.6z"/>
		<path class="st2" d="M185.4,226.5h-1.7l6.7-18.3h1.7L185.4,226.5z"/>
		<path class="st2" d="M193.3,210.6l10.3,6v1l-10.3,5.9v-2.1l7.7-4.4l-7.7-4.4V210.6z"/>
	</g>
	<path class="st3" d="M100.4,217.2c1.6,0.6,3,1.2,4.6,1.8c-0.2,0.1-0.4,0.3-0.6,0.4c-0.8,0.5-0.8,0.5-0.1,1.2c0.5,0.5,1,1,1.5,1.5
		c-0.2,0.2-0.3,0.3-0.5,0.5c-0.6-0.6-1.2-1.2-1.7-1.7c-0.4-0.4-0.5-0.4-0.8,0.1c-0.2,0.3-0.3,0.5-0.5,0.8c0,0,0,0-0.1,0.1
		C101.6,220.3,101.1,218.8,100.4,217.2z"/>
	<g>
		<path class="st3" d="M62.2,206.8h8.9l0.1,0.1v1l-0.1,0.1h-2.5v11.7c0,1.2-0.7,2.3-2,3.2c-0.5,0.2-1,0.3-1.5,0.3h-3.4
			c-1.2,0-2.3-0.7-3.1-2.2c-0.2-0.5-0.3-1-0.3-1.4v-0.1l0.1-0.1h1c0.1,0,0.1,0.3,0.2,0.9c0.3,0.7,0.8,1.2,1.5,1.5
			c0.4,0.1,0.8,0.1,1.4,0.1h2.1c1.9,0,2.8-1,2.8-2.9v-11h-5.2l-0.1-0.1L62.2,206.8L62.2,206.8z"/>
		<path class="st3" d="M72.7,206.8H74l9,9l9-9h1.4l0.1,0.1V223l-0.1,0.1h-1.3L92,223v-14.1l-9,9H83l-9-9V223l-0.1,0.1h-1.3l-0.1-0.1
			v-16.2L72.7,206.8z"/>
		<path class="st3" d="M118.5,206.8h10.1l0.1,0.1v1.4l-0.1,0.1h-10c-2.4,0-4.2,1.1-5.7,3.4c-0.6,1-0.8,2.1-0.8,3.2v0.1
			c0,2.6,1.3,4.6,4,6c0.9,0.3,1.8,0.5,2.6,0.5h8.4v-5.9h-7.8l-0.1-0.1v-1.4l0.1-0.1h9.2l0.1,0.1v8.9l-0.1,0.1h-10.3
			c-2.4,0-4.5-1.2-6.3-3.5c-1-1.4-1.5-2.9-1.5-4.5v-0.6c0-2.4,1.2-4.5,3.5-6.3C115.4,207.3,116.9,206.8,118.5,206.8z"/>
		<path class="st3" d="M130.2,213h1.3c0.1,0,0.1,0.1,0.1,0.4c0.5-0.3,0.9-0.4,1.3-0.4h2.9l0.1,0.1v1.3l-0.1,0.1H133
			c-0.9,0.2-1.4,0.7-1.4,1.4v7.1l-0.1,0.1h-1.3l-0.1-0.1v-9.9L130.2,213z"/>
		<path class="st3" d="M138.2,213h6c1.2,0,2.1,0.6,2.7,1.9c0.1,0.3,0.2,0.6,0.2,0.9v7.1l-0.1,0.1h-1.3l-0.1-0.1v-0.7
			c-0.6,0.5-1.3,0.8-1.9,0.8h-4.5c-1.1,0-2-0.6-2.6-1.9c-0.1-0.3-0.2-0.6-0.2-0.9v-0.4c0-1.3,0.8-2.3,2.3-2.9l0.9-0.1h3.6
			c0.9,0,1.6,0.3,2.3,0.8v-1.2c0-1.4-0.6-2.1-1.8-2.1h-5.7l-0.1-0.1v-1.3L138.2,213z M138,220.1c0.2,1.1,0.7,1.6,1.6,1.6h3.6
			c1,0,1.7-0.4,1.9-1.1l0.1-0.4v-0.1c0-0.8-0.4-1.3-1.2-1.5l-0.4-0.1h-3.8C138.5,218.6,138,219.1,138,220.1z"/>
		<path class="st3" d="M148.6,213h1.2c0.1,0,0.1,0.1,0.1,0.4c0.4-0.3,0.9-0.4,1.3-0.4h2.7c1.5,0,2.8,0.9,3.9,2.6
			c0.3,0.7,0.4,1.3,0.4,1.8v0.3c0,1.8-1,3.2-2.9,4.1c-0.5,0.3-1.3,0.4-2.2,0.4h-1.4c-0.7,0-1.3-0.1-1.8-0.4v5.9l-0.1,0.1h-1.2
			l-0.1-0.1v-14.7L148.6,213z M149.9,215.9v3.4c0.1,1,0.6,1.5,1.5,1.5h2c1.6,0,2.7-0.8,3.3-2.4l0.1-0.8c0-1.6-0.9-2.7-2.7-3.2
			l-1-0.1h-1.7c-0.8,0-1.3,0.4-1.5,1.2L149.9,215.9z"/>
		<path class="st3" d="M159.7,208.2h1.3l0.1,0.1v5.2c0.5-0.3,1-0.4,1.5-0.4h4.6c1.4,0,2.4,0.8,3,2.5v7.5l-0.1,0.1h-1.3l-0.1-0.1
			v-6.4c0-1-0.3-1.7-0.9-1.9c-0.3-0.1-0.7-0.2-1.2-0.2h-3.3c-1,0-1.6,0.3-1.9,0.8c-0.1,0.3-0.2,0.7-0.2,1.3v6.4l-0.1,0.1h-1.3
			l-0.1-0.1v-14.7L159.7,208.2z"/>
		<path class="st3" d="M171.6,211h1.3l0.1,0.1v1l-0.1,0.1h-1.3l-0.1-0.1v-1L171.6,211z M171.6,213h1.3l0.1,0.1v9.9l-0.1,0.1h-1.3
			l-0.1-0.1v-9.9L171.6,213z"/>
		<path class="st3" d="M175.3,213h1.9c0.3,0.3,1,1.3,2,2.9h0.1c1.1-1.8,1.8-2.7,1.9-2.9h1.9v0.1l-2.9,4.3v0.1l3.7,5.6l-0.1,0.1H182
			c-1.3-1.8-2.3-3.2-2.8-4.1l-2.9,4.1h-1.9l-0.1-0.1l3.8-5.6l-2.9-4.3V213z"/>
	</g>
</g>
<g>
	<path class="st3" d="M71,27.2h3v2.1h-3v6.1h-2.3V20.7h6.1v2.1H71V27.2z"/>
	<path class="st3" d="M75.9,20.7h2.3v14.7h-2.3V20.7z"/>
	<path class="st3" d="M79.8,20.7h2.3v12.6h3.8v2.1h-6.1V20.7z"/>
	<path class="st3" d="M91.8,31.1l1.6-10.4h3.2v14.7h-2.2V24.9l-1.6,10.5h-2.2L88.9,25v10.4h-2V20.7h3.2L91.8,31.1z"/>
	<path class="st3" d="M103.2,31.1l1.6-10.4h3.2v14.7h-2.2V24.9l-1.6,10.5H102L100.3,25v10.4h-2V20.7h3.2L103.2,31.1z"/>
	<path class="st3" d="M117.1,35.4h-2.3l-0.4-2.7h-2.8l-0.4,2.7H109l2.3-14.7h3.4L117.1,35.4z M111.8,30.7h2.2l-1.1-7.4L111.8,30.7z"
		/>
	<path class="st3" d="M121.2,29.5l-0.7,1.3v4.5h-2.3V20.7h2.3v6.4l3-6.4h2.3l-3.2,6.5l3.2,8.1h-2.4L121.2,29.5z"/>
	<path class="st3" d="M126.8,20.7h2.3v14.7h-2.3V20.7z"/>
	<path class="st3" d="M132.8,24.8v10.6h-2.1V20.7h2.9l2.4,8.8v-8.8h2.1v14.7h-2.4L132.8,24.8z"/>
	<path class="st3" d="M143.2,27.2h3.2v4.7c0,1.2-0.3,2.1-0.9,2.7c-0.6,0.6-1.4,1-2.6,1s-2-0.3-2.6-1c-0.6-0.6-0.9-1.5-0.9-2.7v-7.6
		c0-1.2,0.3-2.1,0.9-2.7c0.6-0.6,1.4-1,2.6-1s2,0.3,2.6,1c0.6,0.6,0.9,1.5,0.9,2.7v1.4h-2.2v-1.6c0-0.5-0.1-0.9-0.3-1.1
		c-0.2-0.2-0.5-0.3-0.9-0.3s-0.7,0.1-0.9,0.3c-0.2,0.2-0.3,0.6-0.3,1.1V32c0,0.5,0.1,0.9,0.3,1.1s0.5,0.3,0.9,0.3s0.7-0.1,0.9-0.3
		c0.2-0.2,0.3-0.6,0.3-1.1v-2.7h-1V27.2z"/>
	<path class="st3" d="M151.2,20.7h2.3v12.6h3.8v2.1h-6.1V20.7z"/>
	<path class="st3" d="M158.1,24.2c0-1.2,0.3-2.1,0.9-2.7c0.6-0.6,1.5-1,2.6-1c1.1,0,2,0.3,2.6,1c0.6,0.6,0.9,1.5,0.9,2.7v7.6
		c0,1.2-0.3,2.1-0.9,2.7c-0.6,0.6-1.5,1-2.6,1c-1.1,0-2-0.3-2.6-1c-0.6-0.6-0.9-1.5-0.9-2.7V24.2z M160.4,32c0,0.5,0.1,0.9,0.3,1.1
		c0.2,0.2,0.5,0.3,0.9,0.3s0.7-0.1,0.9-0.3c0.2-0.2,0.3-0.6,0.3-1.1v-7.9c0-0.5-0.1-0.9-0.3-1.1c-0.2-0.2-0.5-0.3-0.9-0.3
		s-0.7,0.1-0.9,0.3c-0.2,0.2-0.3,0.6-0.3,1.1V32z"/>
	<path class="st3" d="M170,27.2h3.2v4.7c0,1.2-0.3,2.1-0.9,2.7c-0.6,0.6-1.4,1-2.6,1s-2-0.3-2.6-1c-0.6-0.6-0.9-1.5-0.9-2.7v-7.6
		c0-1.2,0.3-2.1,0.9-2.7c0.6-0.6,1.4-1,2.6-1s2,0.3,2.6,1c0.6,0.6,0.9,1.5,0.9,2.7v1.4h-2.2v-1.6c0-0.5-0.1-0.9-0.3-1.1
		c-0.2-0.2-0.5-0.3-0.9-0.3s-0.7,0.1-0.9,0.3c-0.2,0.2-0.3,0.6-0.3,1.1V32c0,0.5,0.1,0.9,0.3,1.1s0.5,0.3,0.9,0.3s0.7-0.1,0.9-0.3
		c0.2-0.2,0.3-0.6,0.3-1.1v-2.7h-1V27.2z"/>
	<path class="st3" d="M174.5,24.2c0-1.2,0.3-2.1,0.9-2.7c0.6-0.6,1.5-1,2.6-1c1.1,0,2,0.3,2.6,1c0.6,0.6,0.9,1.5,0.9,2.7v7.6
		c0,1.2-0.3,2.1-0.9,2.7c-0.6,0.6-1.5,1-2.6,1c-1.1,0-2-0.3-2.6-1c-0.6-0.6-0.9-1.5-0.9-2.7V24.2z M176.8,32c0,0.5,0.1,0.9,0.3,1.1
		c0.2,0.2,0.5,0.3,0.9,0.3s0.7-0.1,0.9-0.3c0.2-0.2,0.3-0.6,0.3-1.1v-7.9c0-0.5-0.1-0.9-0.3-1.1c-0.2-0.2-0.5-0.3-0.9-0.3
		s-0.7,0.1-0.9,0.3c-0.2,0.2-0.3,0.6-0.3,1.1V32z"/>
</g>
<g>
	<path class="st3" d="M69.9,181.8h3.6c1.2,0,2,0.3,2.6,0.9c0.6,0.6,0.8,1.5,0.8,2.7v7.4c0,1.2-0.3,2.1-0.8,2.7s-1.4,0.9-2.6,0.9
		h-3.6V181.8z M72.2,183.8v10.5h1.3c0.4,0,0.6-0.1,0.9-0.3c0.2-0.2,0.3-0.6,0.3-1.1v-7.6c0-0.5-0.1-0.9-0.3-1.1
		c-0.2-0.2-0.5-0.3-0.9-0.3H72.2z"/>
	<path class="st3" d="M80.7,187.9h3.2v2.1h-3.2v4.3h4v2.1h-6.3v-14.7h6.3v2.1h-4V187.9z"/>
	<path class="st3" d="M89.6,193.7l1.8-12h2.1l-2.3,14.7h-3.4l-2.3-14.7h2.3L89.6,193.7z"/>
	<path class="st3" d="M96.9,187.9h3.2v2.1h-3.2v4.3h4v2.1h-6.3v-14.7h6.3v2.1h-4V187.9z"/>
	<path class="st3" d="M102.3,181.8h2.3v12.6h3.8v2.1h-6.1V181.8z"/>
	<path class="st3" d="M109.2,185.3c0-1.2,0.3-2.1,0.9-2.7s1.5-1,2.6-1s2,0.3,2.6,1s0.9,1.5,0.9,2.7v7.6c0,1.2-0.3,2.1-0.9,2.7
		c-0.6,0.6-1.5,1-2.6,1s-2-0.3-2.6-1c-0.6-0.6-0.9-1.5-0.9-2.7V185.3z M111.5,193c0,0.5,0.1,0.9,0.3,1.1c0.2,0.2,0.5,0.3,0.9,0.3
		s0.7-0.1,0.9-0.3c0.2-0.2,0.3-0.6,0.3-1.1v-7.9c0-0.5-0.1-0.9-0.3-1.1c-0.2-0.2-0.5-0.3-0.9-0.3s-0.7,0.1-0.9,0.3
		c-0.2,0.2-0.3,0.6-0.3,1.1V193z"/>
	<path class="st3" d="M121.1,181.8c1.2,0,2,0.3,2.6,0.9c0.6,0.6,0.8,1.5,0.8,2.7v1.9c0,1.2-0.3,2.1-0.8,2.7
		c-0.6,0.6-1.4,0.9-2.6,0.9H120v5.5h-2.3v-14.7H121.1z M120,183.8v5h1.1c0.4,0,0.6-0.1,0.8-0.3c0.2-0.2,0.3-0.6,0.3-1.1v-2.2
		c0-0.5-0.1-0.9-0.3-1.1c-0.2-0.2-0.5-0.3-0.8-0.3H120z"/>
	<path class="st3" d="M125.6,181.8h2.3v14.7h-2.3V181.8z"/>
	<path class="st3" d="M131.6,185.8v10.6h-2.1v-14.7h2.9l2.4,8.8v-8.8h2.1v14.7h-2.4L131.6,185.8z"/>
	<path class="st3" d="M142,188.2h3.2v4.7c0,1.2-0.3,2.1-0.9,2.7c-0.6,0.6-1.4,1-2.6,1c-1.1,0-2-0.3-2.6-1c-0.6-0.6-0.9-1.5-0.9-2.7
		v-7.6c0-1.2,0.3-2.1,0.9-2.7c0.6-0.6,1.4-1,2.6-1c1.1,0,2,0.3,2.6,1c0.6,0.6,0.9,1.5,0.9,2.7v1.4H143v-1.6c0-0.5-0.1-0.9-0.3-1.1
		c-0.2-0.2-0.5-0.3-0.9-0.3s-0.7,0.1-0.9,0.3c-0.2,0.2-0.3,0.6-0.3,1.1v7.9c0,0.5,0.1,0.9,0.3,1.1c0.2,0.2,0.5,0.3,0.9,0.3
		s0.7-0.1,0.9-0.3c0.2-0.2,0.3-0.6,0.3-1.1v-2.7h-1V188.2z"/>
	<path class="st3" d="M149.9,181.8h2.3v12.6h3.8v2.1h-6.1V181.8z"/>
	<path class="st3" d="M156.8,185.3c0-1.2,0.3-2.1,0.9-2.7c0.6-0.6,1.5-1,2.6-1s2,0.3,2.6,1s0.9,1.5,0.9,2.7v7.6
		c0,1.2-0.3,2.1-0.9,2.7c-0.6,0.6-1.5,1-2.6,1s-2-0.3-2.6-1c-0.6-0.6-0.9-1.5-0.9-2.7V185.3z M159.1,193c0,0.5,0.1,0.9,0.3,1.1
		c0.2,0.2,0.5,0.3,0.9,0.3s0.7-0.1,0.9-0.3c0.2-0.2,0.3-0.6,0.3-1.1v-7.9c0-0.5-0.1-0.9-0.3-1.1c-0.2-0.2-0.5-0.3-0.9-0.3
		s-0.7,0.1-0.9,0.3c-0.2,0.2-0.3,0.6-0.3,1.1V193z"/>
	<path class="st3" d="M168.8,188.2h3.2v4.7c0,1.2-0.3,2.1-0.9,2.7c-0.6,0.6-1.4,1-2.6,1c-1.1,0-2-0.3-2.6-1
		c-0.6-0.6-0.9-1.5-0.9-2.7v-7.6c0-1.2,0.3-2.1,0.9-2.7c0.6-0.6,1.4-1,2.6-1c1.1,0,2,0.3,2.6,1c0.6,0.6,0.9,1.5,0.9,2.7v1.4h-2.2
		v-1.6c0-0.5-0.1-0.9-0.3-1.1c-0.2-0.2-0.5-0.3-0.9-0.3s-0.7,0.1-0.9,0.3c-0.2,0.2-0.3,0.6-0.3,1.1v7.9c0,0.5,0.1,0.9,0.3,1.1
		c0.2,0.2,0.5,0.3,0.9,0.3s0.7-0.1,0.9-0.3c0.2-0.2,0.3-0.6,0.3-1.1v-2.7h-1V188.2z"/>
	<path class="st3" d="M173.3,185.3c0-1.2,0.3-2.1,0.9-2.7c0.6-0.6,1.5-1,2.6-1s2,0.3,2.6,1s0.9,1.5,0.9,2.7v7.6
		c0,1.2-0.3,2.1-0.9,2.7c-0.6,0.6-1.5,1-2.6,1s-2-0.3-2.6-1c-0.6-0.6-0.9-1.5-0.9-2.7V185.3z M175.6,193c0,0.5,0.1,0.9,0.3,1.1
		c0.2,0.2,0.5,0.3,0.9,0.3s0.7-0.1,0.9-0.3c0.2-0.2,0.3-0.6,0.3-1.1v-7.9c0-0.5-0.1-0.9-0.3-1.1c-0.2-0.2-0.5-0.3-0.9-0.3
		s-0.7,0.1-0.9,0.3c-0.2,0.2-0.3,0.6-0.3,1.1V193z"/>
</g>
</svg>
