<?xml version="1.0" encoding="utf-8"?>
<!-- Generator: Adobe Illustrator 22.1.0, SVG Export Plug-In . SVG Version: 6.00 Build 0)  -->
<svg version="1.1" id="Capa_1" xmlns="http://www.w3.org/2000/svg" xmlns:xlink="http://www.w3.org/1999/xlink" x="0px" y="0px"
	 viewBox="0 0 512 512" style="enable-background:new 0 0 512 512;" xml:space="preserve">
<style type="text/css">
	.st0{fill:#E7D0E4;}
	.st1{fill:#D6B5D6;}
	.st2{fill:#724387;}
	.st3{fill:#5B356C;}
</style>
<g>
	<g>
		<polygon class="st0" points="512,511.9 1.6,512 1.5,2.3 511.9,2.2 		"/>
		<polygon class="st1" points="512,511.9 256.8,512 256.7,2.3 511.9,2.2 		"/>
		<rect x="31.5" y="32.1" class="st2" width="450.6" height="450"/>
		<rect x="256.8" y="32.1" class="st3" width="225.3" height="450"/>
		<path class="st0" d="M174,183.1h29.2l64.6,169.7h-34l-15.9-42.4h-59.3L143,352.6h-34L174,183.1z M212,287.2l-23.5-66.6l-24.4,66.6
			H212z"/>
		<path class="st1" d="M338.1,355.1c-40,0-66.1-29.6-66.1-64.3c0-31,21.6-65.4,66.3-65.5c31.9,0,65.4,21,65.4,64.2
			c0,2-0.4,9.5-0.7,10.7h-97c0.5,5,5.8,31.2,33.3,31.2c17.8,0,27.6-11.8,29.7-17l27.5,7.7C391.9,331.9,376.2,355.1,338.1,355.1
			 M370.6,279.5c-2-20-16.4-31-32.8-31c-16.8,0-30.9,12.7-32.3,31H370.6z"/>
		<polygon class="st1" points="256.8,323.9 256.8,352.6 267.7,352.6 		"/>
	</g>
</g>
</svg>
