<?xml version="1.0" encoding="utf-8"?>
<!-- Generator: Adobe Illustrator 22.1.0, SVG Export Plug-In . SVG Version: 6.00 Build 0)  -->
<svg version="1.1" id="Capa_1" xmlns="http://www.w3.org/2000/svg" xmlns:xlink="http://www.w3.org/1999/xlink" x="0px" y="0px"
	 viewBox="0 0 512 512" style="enable-background:new 0 0 512 512;" xml:space="preserve">
<style type="text/css">
	.st0{fill:#FCBE79;}
	.st1{fill:#F9A442;}
	.st2{fill:#934F22;}
	.st3{fill:#693716;}
</style>
<polygon class="st0" points="515.4,513.1 4.9,512.2 0.4,2.8 510.9,3.6 "/>
<polygon class="st1" points="515.4,513.1 260.2,512.7 255.7,3.2 510.9,3.6 "/>
<polygon class="st2" points="485.3,483.2 34.6,482.4 30.6,32.7 481.3,33.4 "/>
<polygon class="st3" points="485.3,483.2 259.9,482.8 255.9,33 481.3,33.4 "/>
<path class="st0" d="M208.9,183.8l29.2,0.1l66.1,169.7l-34-0.1l-16.2-42.3l-59.3-0.1l-15.2,42.2l-34-0.1L208.9,183.8z M247.9,288
	l-24-66.7L200,287.9L247.9,288z"/>
<path class="st1" d="M318.5,211l-0.3-31.8l32,0l0.3,31.8L318.5,211z M319.8,353.6l-1.1-125.2l32.1,0.1l1.1,125.1L319.8,353.6z"/>
<polygon class="st1" points="257.7,234.2 258.5,322.8 270.3,353.5 304.2,353.5 "/>
</svg>
