<?xml version="1.0" encoding="utf-8"?>
<!-- Generator: Adobe Illustrator 22.1.0, SVG Export Plug-In . SVG Version: 6.00 Build 0)  -->
<svg version="1.1" id="Layer_1" xmlns="http://www.w3.org/2000/svg" xmlns:xlink="http://www.w3.org/1999/xlink" x="0px" y="0px"
	 viewBox="0 0 512 414" style="enable-background:new 0 0 512 414;" xml:space="preserve">
<style type="text/css">
	.st0{opacity:0.16;fill:#00A299;}
	.st1{fill:#00A299;}
	.st2{fill:#D8DAE8;}
</style>
<g>
	<path class="st0" d="M431.5,81.6L416.9,84l3.7,18.7l-33.2,5.6l-3.7-18.7L52.8,145.9l3.7,18.7l-33.2,5.6l-3.7-18.7l-13.9,2.4
		l50.6,256l13.9-2.4l-2.5-12.4l33.2-5.6l2.5,12.4l330.9-56.2l-2.5-12.4l33.2-5.6l2.5,12.4l14.7-2.5L431.5,81.6z M432.6,163.4
		l4.2,21.4l-33.2,5.6l-4.2-21.4L432.6,163.4z M424.5,122.3l4.2,21.5l-33.2,5.6l-4.2-21.5L424.5,122.3z M27.2,189.8l33.2-5.6
		l4.2,21.5l-33.2,5.6L27.2,189.8z M35.3,230.9l33.2-5.6l4.2,21.4l-33.2,5.6L35.3,230.9z M43.4,271.9l33.2-5.6l4.2,21.4l-33.2,5.6
		L43.4,271.9z M55.8,334.4L51.5,313l33.2-5.6l4.2,21.4L55.8,334.4z M63.9,375.5L59.7,354l33.2-5.6l4.2,21.4L63.9,375.5z
		 M385.6,329.5l-242,41.1c-13.2,2.2-26-6.4-28.6-19.2l-32.1-162c-2.5-12.8,6.2-25.1,19.4-27.3l242-41.1c13.2-2.2,26,6.4,28.6,19.2
		l32.1,162C407.5,314.9,398.8,327.2,385.6,329.5z M407.5,210.1l33.2-5.6l4.2,21.4l-33.2,5.6L407.5,210.1z M415.6,251.2l33.2-5.6
		l4.2,21.4l-33.2,5.6L415.6,251.2z M428,313.7l-4.2-21.4l33.2-5.6l4.2,21.4L428,313.7z"/>
	<g>
		<path class="st1" d="M96.2,255.9c0.5,0.1,1.1,0.1,1.7,0.1c0.6,0,1.1,0,1.7,0c1.5,0,2.8-0.4,3.9-1.1c1.1-0.8,1.6-2.3,1.6-4.7
			l0-46.8h9.6l0,46.1c0,3.1-0.4,5.6-1.1,7.6c-0.8,2-1.8,3.5-3.1,4.7c-1.3,1.1-2.8,1.9-4.4,2.4c-1.7,0.5-3.4,0.7-5.2,0.7
			c-0.9,0-1.7,0-2.4,0c-0.7,0-1.5-0.1-2.3-0.2V255.9z"/>
		<path class="st1" d="M141.7,246.9l6.6-43.5l13.4,0l0,61.3l-9.1,0l0-44l-6.7,44h-9.1l-7.2-43.4l0,43.4h-8.4l0-61.3h13.4
			L141.7,246.9z"/>
		<path class="st2" d="M183.1,230.5l13.5,0v19.4c0,5-1.2,8.8-3.6,11.4c-2.4,2.7-6,4-10.7,4c-4.7,0-8.3-1.3-10.7-4s-3.6-6.5-3.6-11.4
			l0-31.9c0-5,1.2-8.8,3.6-11.4c2.4-2.7,6-4,10.7-4c4.7,0,8.3,1.3,10.7,4c2.4,2.7,3.6,6.5,3.6,11.4v6l-9.1,0v-6.6
			c0-2.2-0.5-3.8-1.4-4.7c-0.9-0.9-2.1-1.4-3.6-1.4s-2.7,0.5-3.6,1.4c-0.9,0.9-1.4,2.5-1.4,4.7l0,33.1c0,2.2,0.5,3.8,1.4,4.6
			s2.1,1.3,3.6,1.3s2.7-0.4,3.6-1.3c0.9-0.9,1.4-2.4,1.4-4.6v-11.3h-4.4V230.5z"/>
		<path class="st2" d="M223,264.6c-0.1-0.4-0.2-0.8-0.4-1.1c-0.1-0.4-0.2-0.8-0.3-1.3c-0.1-0.5-0.1-1.2-0.2-2c0-0.8,0-1.8,0-3.1
			v-9.6c0-2.9-0.5-4.9-1.5-6c-1-1.2-2.6-1.8-4.8-1.8h-3.3v25h-9.6l0-61.3h14.5c5,0,8.7,1.2,10.9,3.5c2.2,2.3,3.4,5.9,3.4,10.6v4.8
			c0,6.3-2.1,10.5-6.3,12.4c2.5,1,4.1,2.6,5,4.9c0.9,2.2,1.4,5,1.4,8.2v9.5c0,1.5,0.1,2.8,0.2,4c0.1,1.1,0.4,2.3,0.9,3.5H223z
			 M212.5,212.1l0,18.8h3.8c1.8,0,3.2-0.5,4.2-1.4c1-0.9,1.5-2.6,1.5-5.1v-6c0-2.2-0.4-3.8-1.2-4.8c-0.8-1-2-1.5-3.7-1.5H212.5z"/>
		<path class="st2" d="M269.3,264.6h-9.7l-1.7-11.1H246l-1.7,11.1h-8.8l9.8-61.3h14.1L269.3,264.6z M247.3,245.2h9.3l-4.6-31
			L247.3,245.2z"/>
		<path class="st2" d="M287.9,203.3c4.8,0,8.5,1.3,10.8,3.9c2.4,2.6,3.5,6.3,3.5,11.3v8c0,5-1.2,8.7-3.5,11.3
			c-2.4,2.6-6,3.9-10.8,3.9h-4.6l0,23h-9.6l0-61.3H287.9z M283.4,212.1v20.8h4.6c1.5,0,2.7-0.4,3.5-1.2c0.8-0.8,1.2-2.3,1.2-4.6
			v-9.2c0-2.2-0.4-3.7-1.2-4.6c-0.8-0.8-2-1.2-3.5-1.2H283.4z"/>
		<path class="st2" d="M316.4,264.6l-9.6,0l0-61.3l9.6,0v26.3h11v-26.3h9.8l0,61.3h-9.8l0-26.3h-11L316.4,264.6z"/>
		<path class="st2" d="M344.2,203.3l9.6,0l0,61.3l-9.6,0L344.2,203.3z"/>
		<path class="st2" d="M393,203.3l-10.1,29.8l10.8,31.5l-10.2,0l-7.9-24.3l-8,24.3h-9l10.8-31.5l-10.1-29.8h10l7.3,22.6l7.4-22.6
			L393,203.3z"/>
	</g>
	<g>
		<path class="st2" d="M114.3,298.7v3.5H99.4l0,26.2l-3.8,0l0-57.8l22,0v3.5l-18.2,0v24.7H114.3z"/>
		<path class="st2" d="M127.1,270.6l0,57.8h-3.8l0-57.8H127.1z"/>
		<path class="st2" d="M133.7,328.4l0-57.8h3.8l0,54.3h18.2v3.5H133.7z"/>
		<path class="st2" d="M180.8,328.3H177l-12.2-51.1l0,51.2h-3.4l0-57.8h5.5l12.1,51.1l12.1-51.1l5.5,0l0,57.8h-3.6l0-51.4
			L180.8,328.3z"/>
		<path class="st1" d="M215.1,270.1c2.2,0,4.1,0.4,5.6,1.1c1.5,0.7,2.8,1.7,3.8,3c1,1.3,1.7,2.8,2.2,4.6c0.5,1.8,0.7,3.7,0.7,5.8
			v1.2h-3.6v-1.5c0-1.5-0.2-3-0.5-4.3c-0.3-1.3-0.8-2.4-1.5-3.4c-0.7-1-1.6-1.7-2.7-2.3c-1.1-0.5-2.4-0.8-4-0.8c-3.1,0-5.4,1-6.6,3
			c-1.3,2-1.9,4.6-1.9,7.6c0,2.4,0.5,4.4,1.5,6c1,1.7,2.3,3.2,3.9,4.5c1.6,1.4,3.2,2.6,5,3.9c1.8,1.2,3.5,2.6,5,4
			c1.6,1.5,2.9,3.1,3.9,5c1,1.9,1.5,4.1,1.5,6.8c0,2.1-0.2,4-0.7,5.8c-0.5,1.8-1.2,3.3-2.2,4.6c-1,1.3-2.3,2.3-3.9,3
			c-1.6,0.7-3.5,1.1-5.7,1.1c-2.2,0-4.1-0.4-5.7-1.1c-1.6-0.7-2.9-1.7-3.9-3c-1-1.3-1.8-2.8-2.2-4.6c-0.5-1.8-0.7-3.7-0.7-5.8v-3
			h3.6v3.2c0,3.1,0.7,5.6,2,7.6c1.3,2,3.6,3,6.8,3c3.2,0,5.5-1,6.8-3c1.3-2,2-4.6,2-7.6c0-2.3-0.5-4.3-1.5-5.9
			c-1-1.7-2.3-3.2-3.9-4.5c-1.6-1.3-3.3-2.6-5-3.8c-1.8-1.2-3.5-2.5-5-4c-1.6-1.5-2.9-3.1-3.9-5c-1-1.9-1.5-4.2-1.5-6.9
			c0-4.3,1-7.8,2.9-10.4C207.7,271.5,210.8,270.1,215.1,270.1z"/>
		<path class="st1" d="M243.4,328.4l0-54.3l-11.7,0v-3.5l27.3,0v3.5h-11.8l0,54.3H243.4z"/>
		<path class="st1" d="M267.3,314.4c0,1.5,0.2,3,0.5,4.3c0.3,1.4,0.8,2.5,1.5,3.5c0.7,1,1.6,1.8,2.7,2.3c1.1,0.5,2.4,0.8,4,0.8
			c1.6,0,2.9-0.3,4-0.8c1.1-0.5,2-1.3,2.7-2.3c0.7-1,1.2-2.2,1.5-3.5c0.3-1.3,0.5-2.8,0.5-4.3v-43.9h3.6v43.7c0,2.1-0.2,4-0.7,5.8
			c-0.4,1.8-1.2,3.3-2.1,4.6c-1,1.3-2.3,2.4-3.8,3.1c-1.6,0.7-3.5,1.1-5.7,1.1c-2.2,0-4.1-0.4-5.7-1.1c-1.6-0.7-2.9-1.8-3.8-3.1
			c-1-1.3-1.7-2.9-2.2-4.6c-0.5-1.8-0.7-3.7-0.7-5.8v-43.7h3.8V314.4z"/>
		<path class="st1" d="M307.5,270.6c2.2,0,4.1,0.3,5.7,1c1.6,0.7,3,1.7,4,2.9c1,1.3,1.8,2.8,2.3,4.5c0.5,1.8,0.7,3.7,0.7,5.9V314
			c0,2.1-0.2,4.1-0.7,5.9c-0.5,1.8-1.3,3.3-2.3,4.5c-1,1.3-2.4,2.2-4,2.9c-1.6,0.7-3.5,1-5.7,1h-12.7l0-57.8H307.5z M307.4,324.9
			c3.2,0,5.6-1,7-3c1.4-2,2.1-4.6,2.1-7.8v-29.4c0-3.2-0.7-5.8-2.1-7.8s-3.7-3-6.9-3h-8.8v50.9H307.4z"/>
		<path class="st1" d="M330.4,270.6l0,57.8l-3.8,0l0-57.8H330.4z"/>
		<path class="st1" d="M336.7,284.7c0-2.1,0.2-4,0.7-5.8c0.5-1.8,1.3-3.3,2.3-4.6c1-1.3,2.3-2.3,3.9-3.1c1.6-0.7,3.5-1.1,5.7-1.1
			c2.2,0,4.1,0.4,5.7,1.1c1.6,0.7,3,1.8,4,3.1c1,1.3,1.8,2.8,2.3,4.6c0.5,1.8,0.7,3.7,0.7,5.8v29.6c0,2.1-0.2,4-0.7,5.8
			c-0.5,1.8-1.3,3.3-2.3,4.6c-1,1.3-2.4,2.3-4,3.1c-1.6,0.7-3.5,1.1-5.7,1.1c-2.2,0-4.1-0.4-5.7-1.1c-1.6-0.7-2.9-1.8-3.9-3.1
			c-1-1.3-1.8-2.8-2.3-4.6c-0.5-1.8-0.7-3.7-0.7-5.8V284.7z M340.5,314.5c0,3.1,0.7,5.7,2,7.8c1.4,2.1,3.6,3.1,6.8,3.1
			c3.2,0,5.5-1,6.9-3.1c1.4-2.1,2.1-4.7,2.1-7.8v-30.1c0-3.1-0.7-5.7-2.1-7.8c-1.4-2.1-3.7-3.1-6.9-3.1c-3.2,0-5.5,1-6.8,3.1
			c-1.3,2.1-2,4.7-2,7.8V314.5z"/>
		<path class="st1" d="M380.5,270.1c2.2,0,4.1,0.4,5.6,1.1c1.5,0.7,2.8,1.7,3.8,3c1,1.3,1.7,2.8,2.2,4.6c0.5,1.8,0.7,3.7,0.7,5.8
			v1.2h-3.6v-1.5c0-1.5-0.2-3-0.5-4.3c-0.3-1.3-0.8-2.4-1.5-3.4c-0.7-1-1.6-1.7-2.7-2.3c-1.1-0.5-2.4-0.8-4-0.8c-3.1,0-5.4,1-6.6,3
			c-1.3,2-1.9,4.6-1.9,7.6c0,2.4,0.5,4.4,1.5,6c1,1.7,2.3,3.2,3.9,4.5c1.6,1.4,3.2,2.6,5,3.9s3.5,2.6,5,4c1.6,1.5,2.9,3.1,3.9,5
			s1.5,4.1,1.5,6.8c0,2.1-0.2,4-0.7,5.8c-0.5,1.8-1.2,3.3-2.2,4.6c-1,1.3-2.3,2.3-3.9,3c-1.6,0.7-3.5,1.1-5.7,1.1
			c-2.2,0-4.1-0.4-5.7-1.1c-1.6-0.7-2.9-1.7-3.9-3c-1-1.3-1.8-2.8-2.2-4.6c-0.5-1.8-0.7-3.7-0.7-5.8v-3h3.6v3.2c0,3.1,0.7,5.6,2,7.6
			c1.3,2,3.6,3,6.8,3c3.2,0,5.5-1,6.8-3c1.3-2,2-4.6,2-7.6c0-2.3-0.5-4.3-1.5-5.9c-1-1.7-2.3-3.2-3.9-4.5c-1.6-1.3-3.2-2.6-5-3.8
			c-1.8-1.2-3.5-2.5-5-4c-1.6-1.5-2.9-3.1-3.9-5s-1.5-4.2-1.5-6.9c0-4.3,1-7.8,2.9-10.4C373.1,271.4,376.2,270.1,380.5,270.1z"/>
	</g>
	<polygon class="st2" points="448,200.9 404.7,200.9 404.7,333.8 448,333.8 504.3,385.4 504.3,149.3 	"/>
	<g>
		<g>
			<path class="st2" d="M308.1,6c-49.7,0-90,40.3-90,90.1c0,49.7,40.3,90.1,90,90.1c49.7,0,90.1-40.3,90.1-90.1
				C398.1,46.3,357.8,6,308.1,6z M346.8,49.5c10-5.8,22.8-2.3,28.6,7.7c5.8,10,2.3,22.8-7.7,28.6c-10,5.8-22.8,2.4-28.6-7.7
				C333.4,68.1,336.8,55.3,346.8,49.5z M308.1,18.3c11.6,0,21,9.4,21,20.9c0,11.6-9.4,20.9-21,20.9c-11.6,0-20.9-9.4-20.9-20.9
				C287.1,27.7,296.5,18.3,308.1,18.3z M313.2,87c-2.9-1.7-3.9-5.3-2.3-8.3c1.6-2.9,5.3-4,8.3-2.3c2.9,1.6,3.9,5.3,2.3,8.3
				C319.8,87.6,316.1,88.7,313.2,87z M321.7,107.1c1.7,2.9,0.7,6.6-2.1,8.3c-2.9,1.7-6.6,0.7-8.3-2.1c-1.7-2.9-0.8-6.6,2.1-8.3
				C316.2,103.3,320,104.2,321.7,107.1z M303,105.1c2.9,1.7,4,5.3,2.3,8.3c-1.6,2.9-5.3,3.9-8.3,2.3c-2.9-1.6-3.9-5.3-2.3-8.3
				C296.4,104.5,300.1,103.5,303,105.1z M294.5,85c-1.7-2.9-0.7-6.6,2.1-8.3c2.9-1.7,6.6-0.8,8.3,2.1c1.7,2.9,0.8,6.6-2.1,8.3
				C299.9,88.8,296.2,87.9,294.5,85z M269.3,142.6c-10,5.8-22.8,2.4-28.6-7.7c-5.8-10-2.3-22.8,7.7-28.6c10-5.8,22.8-2.4,28.6,7.7
				C282.8,124,279.4,136.8,269.3,142.6z M277,78.1c-5.8,10-18.6,13.5-28.6,7.7c-10-5.8-13.5-18.6-7.7-28.6
				c5.8-10,18.6-13.4,28.6-7.7C279.4,55.3,282.8,68.1,277,78.1z M291.6,90.2c3.3,0,6.1,2.7,6.1,6c0,3.3-2.7,6.1-6,6.1
				c-3.3,0-6.1-2.7-6.1-6C285.5,92.9,288.2,90.2,291.6,90.2z M308.1,173.8c-11.6,0-20.9-9.4-20.9-20.9c0-11.6,9.4-20.9,20.9-20.9
				c11.6,0,21,9.4,21,20.9C329,164.5,319.6,173.8,308.1,173.8z M324.6,102c-3.3,0-6.1-2.6-6.1-6c0-3.3,2.7-6.1,6-6.1
				c3.4,0,6.1,2.7,6.1,6C330.6,99.2,327.9,101.9,324.6,102z M375.4,135c-5.8,10-18.6,13.5-28.6,7.7c-10-5.8-13.5-18.6-7.7-28.6
				c5.8-10,18.6-13.5,28.6-7.7C377.8,112.1,381.2,124.9,375.4,135z"/>
		</g>
	</g>
	<g>
		<path class="st2" d="M161.2,58c-36.4,0-65.8,29.5-65.8,65.8c0,36.4,29.5,65.8,65.8,65.8c36.4,0,65.9-29.5,65.9-65.8
			C227,87.5,197.5,58,161.2,58z M189.5,89.8c7.3-4.2,16.7-1.7,20.9,5.6c4.2,7.3,1.7,16.7-5.6,20.9c-7.3,4.2-16.7,1.7-20.9-5.6
			C179.7,103.5,182.2,94.1,189.5,89.8z M161.2,67c8.5,0,15.3,6.9,15.3,15.3c0,8.5-6.9,15.3-15.3,15.3c-8.5,0-15.3-6.9-15.3-15.3
			C145.9,73.9,152.7,67,161.2,67z M164.9,117.3c-2.1-1.2-2.9-3.9-1.7-6c1.2-2.1,3.9-2.9,6-1.7c2.1,1.2,2.9,3.9,1.7,6
			C169.7,117.7,167,118.5,164.9,117.3z M171.1,132c1.2,2.1,0.5,4.8-1.6,6.1c-2.1,1.2-4.8,0.5-6.1-1.6c-1.2-2.1-0.5-4.8,1.6-6.1
			C167.1,129.2,169.9,129.9,171.1,132z M157.4,130.5c2.1,1.2,2.9,3.9,1.7,6c-1.2,2.1-3.9,2.9-6,1.7c-2.1-1.2-2.9-3.9-1.7-6
			C152.6,130.1,155.3,129.3,157.4,130.5z M151.2,115.8c-1.2-2.1-0.5-4.8,1.6-6.1c2.1-1.2,4.8-0.6,6.1,1.6c1.2,2.1,0.5,4.8-1.6,6.1
			C155.2,118.6,152.5,117.9,151.2,115.8z M132.8,157.9c-7.3,4.2-16.7,1.7-20.9-5.6c-4.2-7.3-1.7-16.7,5.6-20.9
			c7.3-4.2,16.7-1.7,20.9,5.6C142.7,144.3,140.2,153.7,132.8,157.9z M138.5,110.8c-4.2,7.3-13.6,9.8-20.9,5.6
			c-7.3-4.2-9.8-13.6-5.6-20.9c4.2-7.3,13.6-9.8,20.9-5.6C140.2,94.1,142.7,103.5,138.5,110.8z M149.1,119.6c2.4,0,4.5,1.9,4.5,4.4
			c0,2.4-1.9,4.5-4.4,4.5c-2.4,0-4.4-1.9-4.5-4.4C144.7,121.6,146.7,119.6,149.1,119.6z M161.2,180.7c-8.5,0-15.3-6.9-15.3-15.3
			c0-8.5,6.9-15.3,15.3-15.3c8.5,0,15.3,6.9,15.3,15.3C176.5,173.9,169.6,180.7,161.2,180.7z M173.2,128.2c-2.4,0-4.5-1.9-4.5-4.4
			c0-2.4,1.9-4.5,4.4-4.5c2.5,0,4.5,1.9,4.5,4.4C177.7,126.2,175.7,128.2,173.2,128.2z M210.4,152.3c-4.2,7.3-13.6,9.8-20.9,5.6
			c-7.3-4.2-9.8-13.6-5.6-20.9c4.2-7.3,13.6-9.8,20.9-5.6C212.1,135.6,214.6,145,210.4,152.3z"/>
	</g>
</g>
</svg>
