<?xml version="1.0" encoding="utf-8"?>
<!-- Generator: Adobe Illustrator 22.1.0, SVG Export Plug-In . SVG Version: 6.00 Build 0)  -->
<svg version="1.1" id="Layer_1" xmlns="http://www.w3.org/2000/svg" xmlns:xlink="http://www.w3.org/1999/xlink" x="0px" y="0px"
	 viewBox="0 0 512 512" style="enable-background:new 0 0 512 512;" xml:space="preserve">
<style type="text/css">
	.st0{fill:#24A599;}
</style>
<path class="st0" d="M459.6,249c-5.1-3-11.5-3-16.6,0l-84.9,49.3l0.2-53c0-2.9-0.7-5.5-1.9-7.9c38.2-17.1,65-55.4,65.2-100
	C422,76.9,372.8,27.3,312.2,27c-35.9-0.2-67.9,17-88.1,43.6c-20-26.8-51.8-44.2-87.7-44.4C75.8,26,26.2,75.1,25.9,135.7
	c-0.2,44.9,26.6,83.6,65.1,100.9c-1.2,2.3-1.8,4.8-1.8,7.5l-0.9,203c0,9.1,7.3,16.6,16.5,16.6l236.1,1.1c9.2,0,16.6-7.3,16.6-16.5
	l0.2-53l84.4,50c5.1,3,11.4,3.1,16.6,0.2c5.2-2.9,8.4-8.4,8.4-14.3l0.8-167.8C467.9,257.5,464.8,252,459.6,249 M223.5,202.6
	c7.5,10,16.6,18.7,27,25.7l-54.2-0.3C206.7,221.2,215.9,212.5,223.5,202.6 M312,71.2c36.3,0.2,65.7,29.8,65.5,66.1
	c-0.2,36.3-29.8,65.7-66.1,65.5c-36.3-0.2-65.7-29.8-65.5-66.1C246,100.4,275.7,71,312,71.2 M70.1,135.9
	c0.2-36.3,29.8-65.7,66.1-65.5c36.3,0.2,65.7,29.8,65.5,66.1c-0.2,36.3-29.8,65.7-66.1,65.5C99.3,201.9,69.9,172.2,70.1,135.9"/>
</svg>
