<?xml version="1.0" encoding="utf-8"?>
<!-- Generator: Adobe Illustrator 22.1.0, SVG Export Plug-In . SVG Version: 6.00 Build 0)  -->
<svg version="1.1" id="Capa_1" xmlns="http://www.w3.org/2000/svg" xmlns:xlink="http://www.w3.org/1999/xlink" x="0px" y="0px"
	 viewBox="0 0 512 512" style="enable-background:new 0 0 512 512;" xml:space="preserve">
<style type="text/css">
	.st0{fill:#BFE6F6;}
	.st1{fill:#9EDBF5;}
	.st2{fill:#2469B2;}
	.st3{fill:#1A5DA9;}
</style>
<polygon class="st0" points="513.3,513 2.9,510.4 0.9,-0.4 511.2,2.2 "/>
<polygon class="st1" points="513.3,513 258.1,511.7 256.1,0.9 511.2,2.2 "/>
<polygon class="st2" points="483.2,483 32.7,480.6 30.9,29.6 481.4,32 "/>
<polygon class="st3" points="483.2,483 258,481.8 256.2,30.8 481.4,32 "/>
<path class="st0" d="M142.7,351.5l-0.7-170l72,0.4c33,0.2,54.2,30.6,54.3,56.8c0.1,30.9-23.2,56.4-52.6,56.2l-40.2-0.2l0.2,57
	L142.7,351.5z M175.4,265.7l38.3,0.2c11.6,0.1,21.2-10.7,21.2-27.4c-0.1-14.4-8.8-27.6-22.8-27.7l-36.8-0.2L175.4,265.7z"/>
<path class="st1" d="M336,354.9c-28.9-0.1-49.6-13.4-56.8-19.7l11.9-20.1c7.7,5.5,25.3,16.7,44.1,16.8c12.2,0.1,20.6-5,20.5-13.8
	c0-10.8-17.8-14.4-27.6-17.2c-8.1-2.3-44.7-7.6-44.9-35.2c-0.1-26.6,22.9-41.3,49.1-41.2c27.5,0.1,42.2,11.4,49.1,17.5l-12.8,19.3
	c-6.4-4.8-20.6-14-36.4-14.1c-11.6-0.1-19.1,4.9-19.1,14c0,11.4,20.1,14.8,24.7,15.9c8.6,2.3,48.6,8.6,48.7,38.1
	C386.7,350.3,351.6,355,336,354.9"/>
<path class="st1" d="M256.9,204.8l0.3,68.7c7-9.6,11.2-21.7,11.2-34.8C268.3,227.2,264.2,215,256.9,204.8"/>
</svg>
