<?xml version="1.0" encoding="utf-8"?>
<!-- Generator: Adobe Illustrator 22.1.0, SVG Export Plug-In . SVG Version: 6.00 Build 0)  -->
<svg version="1.1" id="Capa_1" xmlns="http://www.w3.org/2000/svg" xmlns:xlink="http://www.w3.org/1999/xlink" x="0px" y="0px"
	 viewBox="0 0 512 512" style="enable-background:new 0 0 512 512;" xml:space="preserve">
<style type="text/css">
	.st0{fill:#E7D0E4;}
	.st1{fill:#D6B5D6;}
	.st2{fill:#724387;}
	.st3{fill:#5B356C;}
</style>
<polygon class="st0" points="512.3,514 2.9,512.6 0.4,0.6 509.7,2.1 "/>
<polygon class="st1" points="512.3,514 257.6,513.3 255.1,1.3 509.7,2.1 "/>
<polygon class="st2" points="482.3,483.9 32.6,482.6 30.4,30.7 480,32 "/>
<polygon class="st3" points="482.3,483.9 257.4,483.3 255.2,31.4 480,32 "/>
<path class="st0" d="M158.3,353l-0.8-170.4l71.9,0.2c32.9,0.1,54.1,30.5,54.2,56.8c0.2,30.9-23.1,56.6-52.5,56.5l-40.1-0.1l0.3,57.1
	L158.3,353z M190.8,267l38.2,0.1c11.6,0,21.2-10.8,21.1-27.5c-0.1-14.4-8.8-27.6-22.8-27.7l-36.8-0.1L190.8,267z"/>
<path class="st1" d="M377.9,255.7c-28.1-0.1-39.1,14.5-42.4,21.7l0.4,76.1l-32-0.1l-0.6-125.7l29.4,0.1l0.1,26.9
	c2.2-4.3,16.1-31.3,45-28.2L377.9,255.7z"/>
<path class="st1" d="M256,190.5l0.5,98.6c16.3-9.7,27.1-28.3,27-49.5C283.4,221.5,273.2,201.3,256,190.5"/>
</svg>
