<?xml version="1.0" encoding="utf-8"?>
<!-- Generator: Adobe Illustrator 22.1.0, SVG Export Plug-In . SVG Version: 6.00 Build 0)  -->
<svg version="1.1" id="Capa_1" xmlns="http://www.w3.org/2000/svg" xmlns:xlink="http://www.w3.org/1999/xlink" x="0px" y="0px"
	 viewBox="0 0 512 512" style="enable-background:new 0 0 512 512;" xml:space="preserve">
<style type="text/css">
	.st0{fill:#24A599;}
</style>
<g>
	<g>
		<g>
			<g>
				<path class="st0" d="M25.8,370.6V121.8C17,124.1,8.3,127,0,129.5v314.1c69.3-19.1,142.9-15.3,209.8,10.8
					c-45.5-46-107.4-71.9-172.1-72C31.2,382.3,25.9,377.1,25.8,370.6z"/>
				<path class="st0" d="M50.1,53.9L49.3,360c76,3.9,146.8,39.5,195.4,98.1V166.2C200.3,101,128.7,59.7,50.1,53.9z"/>
				<path class="st0" d="M486.2,122.3v248.5c-0.1,6.5-5.4,11.7-11.9,11.9c-64.5,0.1-126.4,26-171.6,72v0.3
					c66.7-26.3,140.1-30.3,209.3-11.4V130.1C503.7,127.2,495.2,124.4,486.2,122.3z"/>
				<path class="st0" d="M463,53.9c-78.9,5.2-151,46.6-195.1,112.3v291.9C316.4,399.6,387.1,364,463,360V53.9z"/>
			</g>
		</g>
	</g>
</g>
</svg>
