<?xml version="1.0"?>
<svg xmlns="http://www.w3.org/2000/svg" id="Layer_1" enable-background="new 0 0 512 512" height="512px" viewBox="0 0 512 512" width="512px" class=""><g><path d="m336.333 413.467h-160.666c-8.284 0-15 6.716-15 15v68.533c0 8.284 6.716 15 15 15h160.666c8.284 0 15-6.716 15-15v-68.533c0-8.284-6.716-15-15-15z" data-original="#000000" class="active-path" data-old_color="#000000" fill="#24a599"/><path d="m448.8 254.934h-112.467c-34.849 0-63.199-28.352-63.199-63.2v-112.467c0-34.849 28.351-63.2 63.199-63.2h-154.453l-11.674-11.673c-2.813-2.814-6.629-4.394-10.608-4.394h-80.33c-3.979 0-7.794 1.58-10.608 4.394l-12.014 12.012c-31.78 3.29-56.646 30.225-56.646 62.861v241c0 34.849 28.352 63.2 63.2 63.2h385.6c34.849 0 63.2-28.352 63.2-63.2v-128.534c0 34.849-28.352 63.201-63.2 63.201zm-369.533-144.601c-8.272 0-15-6.728-15-15 0-8.28 6.728-15 15-15 8.28 0 15 6.72 15 15 0 8.273-6.72 15-15 15zm353.466 223.867h-80.333c-8.284 0-15-6.716-15-15s6.716-15 15-15h80.333c8.284 0 15 6.716 15 15s-6.715 15-15 15z" data-original="#000000" class="active-path" data-old_color="#000000" fill="#24a599"/><path d="m392.566 160.667c13.877 0 25.167-11.29 25.167-25.167s-11.29-25.167-25.167-25.167-25.166 11.29-25.166 25.167 11.289 25.167 25.166 25.167z" data-original="#000000" class="active-path" data-old_color="#000000" fill="#24a599"/><path d="m303.134 79.267v112.467c0 18.307 14.894 33.2 33.199 33.2h112.467c18.307 0 33.2-14.894 33.2-33.2v-112.467c0-18.307-14.894-33.2-33.2-33.2h-112.467c-18.306-.001-33.199 14.893-33.199 33.2zm89.432 1.066c30.419 0 55.167 24.748 55.167 55.167s-24.748 55.167-55.167 55.167-55.166-24.748-55.166-55.167 24.747-55.167 55.166-55.167z" data-original="#000000" class="active-path" data-old_color="#000000" fill="#24a599"/></g> </svg>
